<svg width="200" height="200" viewBox="0 0 200 200" fill="none" xmlns="http://www.w3.org/2000/svg">
<rect width="200" height="200" fill="#003C71"/>
<g clip-path="url(#clip0_249_924)">
<path d="M28.8195 89.8571L28.6207 89.7467C28.0021 89.5478 27.3835 89.4374 26.8092 89.4374C23.2302 89.4374 21.4187 92.3535 21.4187 98.0754C21.4187 99.1579 21.5071 103.62 21.7059 104.703V112.921C21.5071 115.639 21.4629 116.125 21.4408 116.213L21.6617 116.257H21.4408C21.4408 121.139 24.1139 122.178 26.3452 122.178C27.3615 122.178 28.1347 122.023 28.7091 121.714C30.0346 120.919 30.8299 119.681 31.0729 117.936V113.186C31.0729 111.993 31.1392 110.248 31.2717 107.95C31.4043 105.653 31.4706 100.682 31.4706 99.3788C31.4485 94.3197 30.5869 91.1826 28.8195 89.8571ZM22.1036 115.705C22.1256 115.705 22.1477 115.727 22.1698 115.727C22.1477 115.992 22.1256 116.169 22.1256 116.279H22.1036V115.705Z" fill="white"/>
<path d="M26.4335 88.5317L26.5882 88.5538L26.7428 88.4875C29.438 87.3829 30.7857 85.1074 30.7857 81.7715C30.7857 78.0159 28.5765 77.2206 26.7207 77.2206C26.4556 77.2206 26.1684 77.2427 25.8591 77.2648C22.6337 77.6182 20.9547 79.4298 20.9547 82.5227C20.9547 84.0691 21.4849 85.4167 22.5012 86.5876C23.5395 87.7364 24.865 88.3991 26.4335 88.5317Z" fill="white"/>
<path d="M115.067 52.61L76.2069 43L73.2907 53.8914L74.329 56.6087L72.5396 56.7191L68.8281 70.615L77.687 66.9477L79.9846 72.0289L115.067 52.61Z" fill="#27BED7"/>
<path d="M115.067 52.61L77.687 66.9477L79.9846 72.0289L115.067 52.61Z" fill="white"/>
<path d="M73.2906 53.8913L74.329 56.6086L115.067 52.61L73.2906 53.8913Z" fill="white"/>
<path d="M76.2952 78.6124L76.0743 78.5682C75.0581 78.3473 73.8872 78.4798 72.5617 78.9658C71.1478 79.4961 70.2641 80.2693 69.9548 81.3076C68.1874 87.6259 66.6631 92.2652 65.4038 95.093C63.4597 99.4672 60.9633 103.4 57.9588 106.78C57.5612 107.222 57.0089 107.266 56.1694 106.979C54.8218 106.537 53.8276 105.52 53.1207 103.908C47.8407 91.6909 44.0188 83.7377 41.7875 80.2914C40.9038 78.8775 39.512 78.1705 37.7005 78.1705C37.0819 78.1705 36.4412 78.2368 35.7343 78.3694C34.6518 78.6124 33.7681 79.4077 33.1274 80.7332C32.5088 82.0587 32.4205 83.2517 32.8844 84.2679C36.7726 92.1548 39.269 97.2801 40.5282 99.9312C42.4723 104.46 43.8199 107.663 44.549 109.497C48.3046 118.378 51.9056 122.686 55.5729 122.686C55.8601 122.686 56.1694 122.664 56.4566 122.598C58.5995 122.178 60.7866 119.483 63.1505 114.379C65.912 108.282 67.8119 104.062 68.7839 101.875C71.5233 96.3302 73.3791 92.5966 74.329 90.6967L74.3732 90.5642C74.4395 90.2991 74.7709 89.4375 76.2289 86.4992C77.1789 84.5993 77.6428 83.1412 77.6428 81.9925C77.6428 80.8216 77.2231 79.7391 76.4278 78.7891L76.2952 78.6124Z" fill="white"/>
<path d="M85.9715 77.6403L85.7727 77.5299C85.132 77.309 84.5355 77.2206 83.9611 77.2206C80.3822 77.2206 78.5707 80.1809 78.5707 86.0132C78.5707 87.4934 78.659 88.6201 78.8579 89.4375V113.01C78.659 115.683 78.6149 116.257 78.5928 116.368L78.7916 116.412H78.5486C78.5486 121.383 81.2217 122.421 83.4751 122.421C84.4913 122.421 85.2646 122.266 85.8389 121.935C87.1645 121.117 87.9598 119.88 88.2028 118.113V98.0313C88.2028 96.8162 88.2691 95.0267 88.4016 92.7071C88.5342 90.3432 88.5784 88.5317 88.5784 87.3166C88.5784 82.1692 87.7168 78.9879 85.9715 77.6403ZM79.2334 115.837C79.2555 115.837 79.2776 115.86 79.2997 115.86C79.2776 116.125 79.2776 116.301 79.2555 116.412H79.2334V115.837Z" fill="white"/>
<path d="M133.094 78.6124L132.873 78.5682C131.857 78.3473 130.686 78.4798 129.36 78.9658C127.946 79.4961 127.085 80.2693 126.753 81.3076C124.986 87.6259 123.462 92.2432 122.202 95.093C120.258 99.4672 117.762 103.4 114.757 106.78C114.36 107.222 113.807 107.266 112.968 106.979C111.62 106.537 110.626 105.52 109.919 103.908C104.639 91.6909 100.817 83.7377 98.5861 80.2914C97.4152 78.4135 95.2943 77.8392 92.5549 78.3694C91.4503 78.6124 90.5666 79.4077 89.9481 80.7332C89.3295 82.0587 89.2411 83.2517 89.7272 84.2679C93.527 92.0222 96.1117 97.2801 97.3489 99.9312C99.293 104.46 100.641 107.663 101.37 109.497C105.125 118.378 108.726 122.686 112.394 122.686C112.681 122.686 112.99 122.664 113.277 122.598C115.42 122.178 117.607 119.483 119.949 114.379C122.799 108.105 124.655 103.996 125.583 101.875C128.322 96.3302 130.178 92.5966 131.128 90.6967L131.172 90.5642C131.26 90.2549 131.636 89.2828 133.028 86.4992C133.977 84.5993 134.441 83.1412 134.441 81.9925C134.441 80.8216 134.044 79.7391 133.226 78.7891L133.094 78.6124Z" fill="white"/>
<path d="M176.991 94.3198C176.681 92.1989 176.505 90.5862 176.505 89.5479V84.8644C176.505 80.0483 175.157 77.6182 172.506 77.6182C169.258 77.6182 167.292 79.4297 166.872 82.9645V87.7363C166.872 98.4951 166.806 104.769 166.674 106.338C166.497 108.591 165.37 110.822 163.294 112.965C161.261 115.086 159.096 116.169 156.887 116.169C156.423 116.169 155.937 116.058 155.451 115.837C151.563 114.18 148.801 111.75 147.255 108.591C145.907 105.896 145.244 102.162 145.244 97.501V89.2828C145.244 85.1516 144.648 81.4401 143.455 78.2589L143.389 78.0821L143.234 77.9496C142.129 77.1543 141.202 76.7787 140.384 76.7787C139.147 76.7787 137.954 77.5077 136.849 78.9437C135.789 80.3355 135.237 81.6831 135.237 82.9865C135.237 83.6935 135.281 84.7318 135.325 86.0352C135.391 87.3387 135.436 88.3328 135.436 89.0177C135.436 90.3874 135.391 92.4861 135.325 95.2255C135.259 97.9428 135.237 100.042 135.237 101.455C135.237 105.918 135.767 109.63 136.805 112.479C138.661 117.538 138.948 118.135 139.103 118.312C142.019 122.332 146.437 124.387 152.27 124.387C153.087 124.387 154.346 124.321 156.114 124.188C157.152 124.122 158.765 123.636 161.084 122.708C163.006 121.868 164.575 121.427 165.679 121.427C166.475 121.427 167.646 121.537 169.214 121.758C170.849 121.979 172.064 122.089 172.926 122.089C176.681 122.089 177.477 120.013 177.477 118.268V99.3346C177.477 98.1859 177.322 96.5069 176.991 94.3198Z" fill="white"/>
<path d="M129.913 131.987C128.786 130.727 127.151 129.777 125.096 129.137C122.467 128.319 120.126 128.01 118.204 128.253C113.83 128.761 110.229 130.617 107.533 133.732L107.467 133.798C106.871 134.748 106.473 135.455 106.252 135.941C104.926 138.018 104.242 140.293 104.242 142.701C104.242 147.385 106.451 151.118 110.781 153.858C112.239 154.763 114.293 155.426 116.878 155.824C117.674 155.934 118.69 156.001 119.861 156.001C120.899 156.001 122.07 155.669 123.351 155.006C124.677 154.277 125.671 153.725 126.289 153.372C127.946 152.466 129.493 151.074 130.885 149.263C132.298 147.429 133.138 145.573 133.425 143.784C133.469 143.519 133.491 143.121 133.491 142.547C133.491 140.912 133.138 138.99 132.431 136.847C131.724 134.704 130.885 133.069 129.913 131.987ZM126.798 143.231C126.798 146.28 125.848 148.754 123.903 150.61C123.881 150.632 123.705 150.831 122.843 150.964C120.104 151.361 119.573 151.405 119.485 151.405C117.696 151.405 115.95 150.654 114.316 149.196C112.791 147.849 111.687 146.214 111.046 144.314C110.648 143.165 110.648 141.044 111.024 137.996C111.134 137.046 111.996 135.985 113.542 134.814C115.111 133.621 116.458 133.003 117.519 132.981H117.674C120.523 132.981 122.688 133.909 124.323 135.831C125.958 137.775 126.798 140.271 126.798 143.231Z" fill="#27BED7"/>
<path d="M106.031 151.251H103.535C103.225 151.251 102.806 151.339 102.231 151.538C101.613 151.759 101.392 151.759 101.325 151.759C98.7186 151.759 96.1338 150.566 93.6374 148.224C91.1631 145.882 89.926 143.408 89.926 140.868C89.926 138.283 90.7655 136.228 92.5107 134.616C94.2781 132.981 96.421 132.185 99.05 132.185C99.4476 132.185 100.088 132.274 100.95 132.451C101.9 132.649 102.607 132.738 103.115 132.738C104.728 132.738 105.633 131.898 105.633 130.44C105.633 129.667 105.28 128.607 103.579 127.9C102.673 127.524 101.679 127.347 100.619 127.347C96.4652 127.347 92.6212 128.629 89.2411 131.169C85.3971 134.041 83.4309 137.775 83.4309 142.259C83.4309 146.589 85.1983 150.036 88.6888 152.488C91.4282 154.432 95.1397 155.691 99.6906 156.244C100.022 156.288 100.375 156.31 100.729 156.31C101.789 156.31 102.894 156.133 103.999 155.758C105.987 155.095 107.003 154.034 107.003 152.598C107.025 151.339 106.252 151.251 106.031 151.251Z" fill="#27BED7"/>
<path d="M178.935 148.379C178.891 144.027 178.692 140.47 178.316 137.819C177.41 131.655 175.312 128.187 172.086 127.48C171.18 127.281 170.297 127.193 169.457 127.193C167.933 127.193 166.143 127.48 164.155 128.076C163.559 128.275 162.918 128.695 162.189 129.38C161.35 130.241 160.576 130.661 159.936 130.661C159.162 130.661 158.146 130.352 156.887 129.711C153.971 128.231 153.595 128.076 153.485 128.032C152.358 127.59 151.055 127.369 149.619 127.369C147.895 127.369 143.61 127.855 141.754 129.048C140.914 128.341 139.721 127.988 138.241 127.988C137.667 127.988 137.159 128.076 136.717 128.253C135.391 128.761 134.684 129.468 134.618 130.352C134.464 133.599 134.464 139.255 134.618 147.142C134.618 147.628 134.596 148.268 134.574 149.086C134.53 150.036 134.508 150.743 134.508 151.162C134.508 155.073 136.098 155.89 137.424 155.89C138.131 155.89 138.97 155.647 139.942 155.139L140.097 155.051L140.185 154.918C140.539 154.41 140.804 154.012 141.003 153.703L141.091 153.548V153.372C141.135 152.024 141.025 150.213 140.804 147.981C140.627 145.198 140.517 143.32 140.517 142.37C140.517 139.807 140.804 137.642 141.378 135.897C142.439 132.716 142.704 131.699 142.748 131.28C144.206 131.302 145.465 131.412 145.664 131.501L145.775 131.589L145.907 131.611C148.956 132.318 149.464 132.649 149.53 132.716C150.304 133.378 151.055 134.306 151.784 135.477C152.491 136.626 152.91 137.664 153.043 138.614C153.264 140.006 153.352 142.679 153.33 146.612C153.33 147.031 153.286 147.738 153.198 148.666C153.109 149.638 153.043 150.389 153.043 150.919C153.043 152.753 153.529 154.189 154.479 155.183C154.832 155.537 155.363 155.713 156.07 155.713C158.566 155.713 159.251 154.609 159.383 153.681C159.648 151.737 159.759 149.064 159.671 145.75C159.56 141.84 159.56 139.211 159.671 137.951C159.781 136.538 160.355 134.881 161.35 133.091C161.615 132.738 161.858 132.495 162.101 132.34C162.587 132.23 163.139 132.163 163.713 132.163C165.702 132.163 167.513 132.671 169.082 133.643C170.849 134.726 171.733 136.14 171.777 137.907C171.976 147.473 172.219 152.775 172.528 154.079C172.97 155.846 174.848 156.332 177.366 154.763C178.493 154.057 179.023 153.261 178.979 152.4C178.979 151.538 178.935 150.19 178.935 148.379Z" fill="#27BED7"/>
<path d="M82.3484 148.158C82.0391 148.158 81.7298 148.224 81.3763 148.379C80.0508 148.975 79.3881 150.08 79.3881 151.693C79.3881 152.687 79.6753 153.571 80.2276 154.366C80.8019 155.161 81.5531 155.559 82.4809 155.559C83.4309 155.559 84.2483 155.272 84.9111 154.675C85.5959 154.079 85.9273 153.305 85.9273 152.355C85.9273 151.361 85.5738 150.411 84.8227 149.506C84.1378 148.622 83.2983 148.158 82.3484 148.158Z" fill="#27BED7"/>
</g>
<defs>
<clipPath id="clip0_249_924">
<rect width="158.09" height="113.288" fill="white" transform="translate(20.9547 43)"/>
</clipPath>
</defs>
</svg>
